<svg width="93" height="61" viewBox="0 0 93 61" fill="none" xmlns="http://www.w3.org/2000/svg">
<g clip-path="url(#clip0_6277_263)">
<path d="M57.5 30.5C57.5 27.13 58.18 23.92 59.41 21H0V56C0 58.76 2.24 61 5 61H75C77.76 61 80 58.76 80 56V54.91C67.41 53.89 57.5 43.35 57.5 30.5Z" fill="#7CB6C9"/>
<path d="M80 6.09V5C80 2.24 77.76 0 75 0H5C2.24 0 0 2.24 0 5V15H63.03C67.13 9.99 73.17 6.64 80 6.09Z" fill="#7CB6C9"/>
<path d="M6.5 10C7.88071 10 9 8.88071 9 7.5C9 6.11929 7.88071 5 6.5 5C5.11929 5 4 6.11929 4 7.5C4 8.88071 5.11929 10 6.5 10Z" fill="#ECFEFF"/>
<path d="M13.5 10C14.8807 10 16 8.88071 16 7.5C16 6.11929 14.8807 5 13.5 5C12.1193 5 11 6.11929 11 7.5C11 8.88071 12.1193 10 13.5 10Z" fill="#ECFEFF"/>
<path d="M20.5 10C21.8807 10 23 8.88071 23 7.5C23 6.11929 21.8807 5 20.5 5C19.1193 5 18 6.11929 18 7.5C18 8.88071 19.1193 10 20.5 10Z" fill="#ECFEFF"/>
<path d="M80.6902 43.6799C79.9602 43.5299 79.4302 43.0599 78.9302 42.5399C77.8902 41.4799 76.8302 40.4299 75.7702 39.3799C75.7002 39.3099 75.6302 39.2499 75.5402 39.1599C75.3702 39.3399 75.2202 39.5099 75.0602 39.6699C74.0702 40.6399 72.6702 40.6399 71.6902 39.6699C70.9802 38.9799 70.2802 38.2799 69.5902 37.5699C68.6002 36.5699 68.6002 35.1799 69.5902 34.1899C71.0002 32.7699 72.4302 31.3799 73.8202 29.9499C75.9802 27.7199 77.3502 25.0599 77.9802 22.0299C78.0002 21.9199 77.9502 21.7799 77.9002 21.6799C77.0602 20.0999 78.2402 18.1999 80.0302 18.2599C80.6402 18.2799 81.1702 18.5099 81.6002 18.9399C84.5202 21.8499 87.4402 24.7599 90.3502 27.6799C91.0402 28.3699 91.2302 29.2099 90.8902 30.1299C90.5602 31.0399 89.8702 31.5299 88.9102 31.6399C88.4502 31.6899 88.0302 31.5799 87.6102 31.3799C87.4802 31.3199 87.3202 31.2899 87.1802 31.3099C85.0702 31.7499 83.1302 32.5799 81.3602 33.7899C81.3302 33.8099 81.2902 33.8399 81.2302 33.8899C81.3302 33.9899 81.4302 34.0899 81.5202 34.1799C82.5302 35.1999 82.5302 36.5799 81.5202 37.5999C81.3602 37.7599 81.1902 37.8999 80.9902 38.0799C81.6102 38.6799 82.2102 39.2199 82.7502 39.7999C83.8502 40.9899 83.4202 42.8899 81.9302 43.5099C81.7502 43.5799 81.5602 43.6299 81.3702 43.6899H80.7002L80.6902 43.6799ZM85.9902 29.9899C83.7502 27.7499 81.5102 25.5199 79.2802 23.2899C78.5802 25.9199 77.3302 28.2999 75.5602 30.3599C76.6902 31.4899 77.8002 32.5999 78.9202 33.7099C80.9902 31.9299 83.3702 30.6899 86.0002 29.9899H85.9902ZM74.4502 31.5299C74.4002 31.5799 74.3502 31.6199 74.3102 31.6599C73.1102 32.8599 71.9102 34.0499 70.7102 35.2499C70.2802 35.6799 70.2802 36.0999 70.7102 36.5299C71.3702 37.1899 72.0402 37.8499 72.7002 38.5199C73.1602 38.9699 73.5602 38.9699 74.0202 38.5199C75.2002 37.3399 76.3802 36.1599 77.5602 34.9799C77.6202 34.9199 77.6702 34.8599 77.7202 34.8099C76.6202 33.7099 75.5402 32.6299 74.4502 31.5399V31.5299ZM89.4802 29.4099C89.4802 29.0599 89.3502 28.8599 89.1702 28.6799C86.3102 25.8299 83.4402 22.9699 80.5802 20.1099C80.5302 20.0599 80.4902 20.0099 80.4302 19.9699C80.1602 19.7799 79.8802 19.7399 79.5802 19.8899C79.3002 20.0299 79.1302 20.3199 79.1902 20.6399C79.2302 20.8299 79.3302 21.0399 79.4602 21.1699C82.3402 24.0599 85.2302 26.9399 88.1102 29.8199C88.1502 29.8599 88.1902 29.9099 88.2402 29.9399C88.4902 30.1099 88.7602 30.1499 89.0402 30.0099C89.3202 29.8699 89.4502 29.6399 89.4702 29.4099H89.4802ZM76.6702 38.1399C76.6702 38.1399 76.7902 38.2099 76.8502 38.2699C78.0302 39.4399 79.2002 40.6099 80.3702 41.7799C80.4202 41.8299 80.4802 41.8899 80.5402 41.9399C80.7802 42.1299 81.0502 42.1799 81.3402 42.0599C81.6302 41.9399 81.7802 41.7099 81.8102 41.4099C81.8302 41.1399 81.7202 40.9299 81.5302 40.7499C80.3202 39.5399 79.1102 38.3299 77.9002 37.1299C77.8602 37.0899 77.8102 37.0499 77.7902 37.0299C77.4202 37.3999 77.0702 37.7499 76.6802 38.1399H76.6702ZM79.9502 34.8399C79.5702 35.1899 79.2102 35.5399 78.8702 35.8599C79.2502 36.2399 79.6102 36.5999 79.9602 36.9499C80.9602 36.0699 80.9702 35.7199 79.9502 34.8399Z" fill="#7CB6C9"/>
<path d="M90.6101 19.64C90.5101 19.81 90.4401 20.02 90.3101 20.16C89.8201 20.67 89.3201 21.16 88.8201 21.66C88.4801 22 88.0001 22 87.6901 21.68C87.3901 21.36 87.3901 20.91 87.7201 20.57C88.2201 20.06 88.7301 19.56 89.2401 19.06C89.4901 18.81 89.8201 18.76 90.1201 18.9C90.4001 19.03 90.5701 19.31 90.6101 19.65V19.64Z" fill="#7CB6C9"/>
<path d="M90.5897 25.01C90.3297 25.01 90.0697 25.01 89.8097 25.01C89.3597 25 89.0097 24.65 89.0197 24.23C89.0197 23.81 89.3597 23.47 89.7997 23.47C90.3197 23.47 90.8297 23.47 91.3497 23.47C91.7897 23.47 92.1197 23.82 92.1097 24.25C92.1097 24.66 91.7797 25 91.3597 25.01C91.0997 25.02 90.8397 25.01 90.5797 25.01H90.5897Z" fill="#7CB6C9"/>
<path d="M85.9105 18.8099C85.9105 19.0699 85.9105 19.3299 85.9105 19.5799C85.9005 20.0199 85.5905 20.34 85.1705 20.36C84.7605 20.38 84.3905 20.0699 84.3705 19.6499C84.3505 19.0899 84.3405 18.5299 84.3705 17.9699C84.3905 17.5499 84.7705 17.2399 85.1805 17.2699C85.5905 17.2899 85.8905 17.61 85.9105 18.03C85.9105 18.29 85.9105 18.5499 85.9105 18.7999V18.8099Z" fill="#7CB6C9"/>
<path d="M74.3597 34.0199C74.2797 34.0599 74.0797 34.0999 73.9497 34.2199C73.5397 34.5899 73.1497 34.9799 72.7797 35.3799C72.4997 35.6799 72.5297 36.1199 72.7997 36.4099C73.0797 36.6999 73.5397 36.7499 73.8497 36.4699C74.2697 36.0899 74.6697 35.6799 75.0497 35.2699C75.2697 35.0399 75.2797 34.7399 75.1497 34.4499C75.0197 34.1699 74.7797 34.0299 74.3697 34.0099L74.3597 34.0199Z" fill="#ECFEFF"/>
<path d="M74.3599 34.0199C74.7799 34.0299 75.0099 34.1799 75.1399 34.4599C75.2799 34.7499 75.2599 35.0499 75.0399 35.2799C74.6499 35.6999 74.2499 36.0999 73.8399 36.4799C73.5299 36.7599 73.0699 36.7099 72.7899 36.4199C72.5199 36.1299 72.4999 35.6799 72.7699 35.3899C73.1499 34.9899 73.5399 34.5999 73.9399 34.2299C74.0699 34.1099 74.2699 34.0699 74.3499 34.0299L74.3599 34.0199Z" fill="#7CB6C9"/>
</g>
<defs>
<clipPath id="clip0_6277_263">
<rect width="92.11" height="61" fill="white"/>
</clipPath>
</defs>
</svg>
