<svg width="96" height="61" viewBox="0 0 96 61" fill="none" xmlns="http://www.w3.org/2000/svg">
<g clip-path="url(#clip0_6277_359)">
<path d="M57.5 30.5C57.5 27.13 58.18 23.92 59.41 21H0V56C0 58.76 2.24 61 5 61H75C77.76 61 80 58.76 80 56V54.91C67.41 53.89 57.5 43.35 57.5 30.5Z" fill="#7CB6C9"/>
<path d="M80 6.09V5C80 2.24 77.76 0 75 0H5C2.24 0 0 2.24 0 5V15H63.03C67.13 9.99 73.17 6.64 80 6.09Z" fill="#7CB6C9"/>
<path d="M6.5 10C7.88071 10 9 8.88071 9 7.5C9 6.11929 7.88071 5 6.5 5C5.11929 5 4 6.11929 4 7.5C4 8.88071 5.11929 10 6.5 10Z" fill="#ECFEFF"/>
<path d="M13.5 10C14.8807 10 16 8.88071 16 7.5C16 6.11929 14.8807 5 13.5 5C12.1193 5 11 6.11929 11 7.5C11 8.88071 12.1193 10 13.5 10Z" fill="#ECFEFF"/>
<path d="M20.5 10C21.8807 10 23 8.88071 23 7.5C23 6.11929 21.8807 5 20.5 5C19.1193 5 18 6.11929 18 7.5C18 8.88071 19.1193 10 20.5 10Z" fill="#ECFEFF"/>
<path d="M79.6297 16H81.3297V17.78C84.5297 18.04 87.2597 19.26 89.4997 21.5C91.7397 23.74 92.9597 26.47 93.2097 29.63H94.9997V31.33H93.2097C92.9497 34.52 91.7197 37.25 89.4797 39.48C87.2397 41.71 84.4997 42.93 81.3197 43.18V44.95H79.6297V43.18C76.4397 42.93 73.7097 41.7 71.4697 39.46C69.2297 37.22 68.0097 34.49 67.7597 31.33H65.9697V29.63H67.7597C68.0197 26.44 69.2497 23.71 71.4897 21.48C73.7297 19.25 76.4597 18.03 79.6397 17.78V16H79.6297ZM86.3597 29.64C85.9497 26.73 83.4997 24.85 81.3197 24.64V26.23H79.6197V24.62C76.7197 25.03 74.8297 27.47 74.6197 29.65H76.2097V31.34H74.5997C75.0097 34.24 77.4597 36.12 79.6397 36.33V34.74H81.3397V36.35C84.2397 35.94 86.1297 33.5 86.3397 31.32H84.7497V29.64H86.3597ZM79.6197 19.51C74.0497 19.87 69.7497 24.59 69.4997 29.62H72.8797C73.1097 27.85 73.8297 26.34 75.0797 25.09C76.3397 23.84 77.8597 23.12 79.6197 22.9V19.52V19.51ZM81.3397 22.89C83.1197 23.12 84.6297 23.84 85.8797 25.09C87.1297 26.34 87.8497 27.87 88.0797 29.61H91.4697C91.1197 24.12 86.4497 19.78 81.3397 19.51V22.89ZM69.4797 31.34C69.8397 36.89 74.5597 41.19 79.6097 41.44V38.06C77.8397 37.83 76.3197 37.11 75.0697 35.86C73.8197 34.61 73.0997 33.08 72.8697 31.33H69.4797V31.34ZM81.3497 41.45C87.0597 41.12 91.3197 36.1 91.4497 31.35H88.1197C87.3997 35.16 85.1497 37.4 81.3297 38.11C81.3297 39.17 81.3297 40.24 81.3297 41.32C81.3297 41.37 81.3397 41.41 81.3497 41.45Z" fill="#7CB6C9"/>
<path d="M83.02 30.52C82.98 31.92 81.81 33.06 80.44 33.02C79.02 32.99 77.87 31.8 77.93 30.42C77.99 29.01 79.15 27.89 80.53 27.93C81.94 27.98 83.07 29.14 83.03 30.51L83.02 30.52Z" fill="#7CB6C9"/>
</g>
<defs>
<clipPath id="clip0_6277_359">
<rect width="94.99" height="61" fill="white"/>
</clipPath>
</defs>
</svg>
