<svg width="93" height="61" viewBox="0 0 93 61" fill="none" xmlns="http://www.w3.org/2000/svg">
<g clip-path="url(#clip0_6277_296)">
<path d="M57.5 30.5C57.5 27.13 58.18 23.92 59.41 21H0V56C0 58.76 2.24 61 5 61H75C77.76 61 80 58.76 80 56V54.91C67.41 53.89 57.5 43.35 57.5 30.5Z" fill="#7CB6C9"/>
<path d="M80 6.09V5C80 2.24 77.76 0 75 0H5C2.24 0 0 2.24 0 5V15H63.03C67.13 9.99 73.17 6.64 80 6.09Z" fill="#7CB6C9"/>
<path d="M6.5 10C7.88071 10 9 8.88071 9 7.5C9 6.11929 7.88071 5 6.5 5C5.11929 5 4 6.11929 4 7.5C4 8.88071 5.11929 10 6.5 10Z" fill="#ECFEFF"/>
<path d="M13.5 10C14.8807 10 16 8.88071 16 7.5C16 6.11929 14.8807 5 13.5 5C12.1193 5 11 6.11929 11 7.5C11 8.88071 12.1193 10 13.5 10Z" fill="#ECFEFF"/>
<path d="M20.5 10C21.8807 10 23 8.88071 23 7.5C23 6.11929 21.8807 5 20.5 5C19.1193 5 18 6.11929 18 7.5C18 8.88071 19.1193 10 20.5 10Z" fill="#ECFEFF"/>
<path d="M80.6201 18C80.7501 18 80.8701 18 81.0001 18C81.0301 18.02 81.0501 18.04 81.0801 18.05C84.6201 19.5 88.1601 20.96 91.7001 22.41C92.1601 22.6 92.3001 22.8 92.3001 23.29C92.3001 27.86 92.3001 32.43 92.3001 37C92.3001 37.48 92.1601 37.69 91.7201 37.87C88.2201 39.31 84.7301 40.74 81.2301 42.18C80.9401 42.3 80.6801 42.3 80.3901 42.18C76.9001 40.74 73.4201 39.31 69.9301 37.87C69.4701 37.68 69.3301 37.48 69.3301 36.99C69.3301 32.42 69.3301 27.85 69.3301 23.28C69.3301 22.8 69.4701 22.59 69.9101 22.41C72.5701 21.32 75.2401 20.22 77.9001 19.13C78.8101 18.76 79.7201 18.37 80.6301 17.99L80.6201 18ZM81.5601 40.39C81.6701 40.35 81.7501 40.32 81.8401 40.29C84.7401 39.1 87.6301 37.91 90.5301 36.72C90.7101 36.65 90.7701 36.56 90.7701 36.36C90.7701 32.46 90.7701 28.57 90.7701 24.67C90.7701 24.58 90.7701 24.5 90.7701 24.38C90.6601 24.42 90.5801 24.45 90.5001 24.48C87.5801 25.68 84.6601 26.88 81.7401 28.07C81.5701 28.14 81.5501 28.24 81.5501 28.39C81.5501 32.3 81.5501 36.22 81.5501 40.13V40.39H81.5601ZM70.8601 24.38C70.8601 24.47 70.8401 24.52 70.8401 24.57C70.8401 28.52 70.8401 32.48 70.8401 36.43C70.8401 36.57 70.8901 36.64 71.0201 36.69C73.9401 37.89 76.8601 39.09 79.7801 40.29C79.8601 40.32 79.9501 40.35 80.0501 40.38C80.0501 40.33 80.0501 40.29 80.0501 40.26C80.0501 36.28 80.0501 32.3 80.0501 28.33C80.0501 28.18 80.0001 28.13 79.8701 28.07C78.9901 27.72 78.1201 27.35 77.2401 27C76.7601 26.8 76.2801 26.6 75.7701 26.39C75.7701 26.51 75.7701 26.59 75.7701 26.68C75.7701 27.67 75.7701 28.66 75.7701 29.65C75.7701 29.98 75.6501 30.24 75.3601 30.4C74.8501 30.68 74.2601 30.31 74.2601 29.7C74.2601 28.47 74.2601 27.23 74.2601 26C74.2601 25.83 74.2101 25.75 74.0501 25.69C73.2601 25.37 72.4701 25.05 71.6801 24.72C71.4101 24.61 71.1401 24.5 70.8601 24.39V24.38ZM89.6001 23.2C89.5101 23.16 89.4601 23.13 89.4001 23.11C88.1401 22.59 86.8801 22.07 85.6201 21.55C85.4701 21.49 85.3501 21.49 85.2001 21.55C82.6601 22.67 80.1101 23.77 77.5701 24.88C77.3501 24.98 77.1401 25.07 76.8901 25.18C76.9901 25.23 77.0501 25.26 77.1201 25.29C78.2801 25.77 79.4401 26.24 80.6001 26.72C80.7701 26.79 80.9001 26.78 81.0701 26.72C83.8401 25.58 86.6101 24.44 89.3901 23.3C89.4601 23.27 89.5301 23.24 89.6201 23.19L89.6001 23.2ZM72.0201 23.2C72.1201 23.25 72.1901 23.28 72.2601 23.31C73.0801 23.65 73.8901 23.99 74.7101 24.31C74.8201 24.35 74.9801 24.35 75.0801 24.31C77.8001 23.13 80.5201 21.94 83.2401 20.76C83.2901 20.74 83.3401 20.71 83.4201 20.66C82.6101 20.33 81.8401 20.01 81.0701 19.69C80.8901 19.61 80.7401 19.62 80.5501 19.69C78.5201 20.53 76.5001 21.36 74.4701 22.19C73.6601 22.52 72.8601 22.86 72.0201 23.2Z" fill="#7CB6C9"/>
</g>
<defs>
<clipPath id="clip0_6277_296">
<rect width="92.29" height="61" fill="white"/>
</clipPath>
</defs>
</svg>
