<svg width="94" height="61" viewBox="0 0 94 61" fill="none" xmlns="http://www.w3.org/2000/svg">
<g clip-path="url(#clip0_6277_317)">
<path d="M57.5 30.5C57.5 27.13 58.18 23.92 59.41 21H0V56C0 58.76 2.24 61 5 61H75C77.76 61 80 58.76 80 56V54.91C67.41 53.89 57.5 43.35 57.5 30.5Z" fill="#7CB6C9"/>
<path d="M80 6.09V5C80 2.24 77.76 0 75 0H5C2.24 0 0 2.24 0 5V15H63.03C67.13 9.99 73.17 6.64 80 6.09Z" fill="#7CB6C9"/>
<path d="M6.5 10C7.88071 10 9 8.88071 9 7.5C9 6.11929 7.88071 5 6.5 5C5.11929 5 4 6.11929 4 7.5C4 8.88071 5.11929 10 6.5 10Z" fill="#ECFEFF"/>
<path d="M13.5 10C14.8807 10 16 8.88071 16 7.5C16 6.11929 14.8807 5 13.5 5C12.1193 5 11 6.11929 11 7.5C11 8.88071 12.1193 10 13.5 10Z" fill="#ECFEFF"/>
<path d="M20.5 10C21.8807 10 23 8.88071 23 7.5C23 6.11929 21.8807 5 20.5 5C19.1193 5 18 6.11929 18 7.5C18 8.88071 19.1193 10 20.5 10Z" fill="#ECFEFF"/>
<path d="M89.0505 17C89.2905 17.05 89.5305 17.1 89.7605 17.15C92.2805 17.74 94.0105 20.03 93.9405 22.66C93.8705 25.17 91.9505 27.36 89.4605 27.79C87.1705 28.19 84.9605 27.16 83.7805 25.15C83.7505 25.09 83.7005 25.04 83.6605 24.97C81.6105 26.15 79.5705 27.33 77.5205 28.52C78.0005 29.82 78.0005 31.12 77.5205 32.44C79.5705 33.62 81.6105 34.8 83.6205 35.96C83.9705 35.52 84.2705 35.05 84.6605 34.68C86.2305 33.16 88.1105 32.67 90.1805 33.35C92.2505 34.03 93.5105 35.52 93.8705 37.67C94.3705 40.61 92.3105 43.41 89.3405 43.89C86.4405 44.36 83.6405 42.38 83.1505 39.46C83.0605 38.92 83.1005 38.36 83.1005 37.81C83.1005 37.67 83.0805 37.59 82.9505 37.52C80.8805 36.33 78.8005 35.13 76.7305 33.94C76.7205 33.94 76.7005 33.93 76.6605 33.91C76.5705 34.01 76.4705 34.12 76.3605 34.23C74.7605 35.81 72.8705 36.33 70.7405 35.64C68.6105 34.94 67.3905 33.4 67.0305 31.19C67.0305 31.13 67.0005 31.07 66.9805 31.01C66.9805 30.66 66.9805 30.31 66.9805 29.96C67.0005 29.9 67.0205 29.84 67.0305 29.78C67.5505 25.99 71.6405 23.89 75.0005 25.69C75.6405 26.03 76.1805 26.5 76.6605 27.06C76.7605 27.01 76.8405 26.96 76.9205 26.91C78.8805 25.78 80.8505 24.64 82.8205 23.52C83.0405 23.39 83.1105 23.27 83.0905 23.01C82.8305 20.6 84.2005 18.32 86.4505 17.42C86.9205 17.23 87.4405 17.14 87.9305 17.01C88.3005 17.01 88.6705 17.01 89.0405 17.01L89.0505 17ZM92.2605 38.51C92.2605 36.44 90.5705 34.74 88.5005 34.74C86.4305 34.74 84.7405 36.44 84.7405 38.51C84.7405 40.57 86.4305 42.26 88.4905 42.26C90.5605 42.26 92.2605 40.58 92.2605 38.51ZM72.4205 34.23C74.4905 34.24 76.1805 32.58 76.2005 30.52C76.2205 28.44 74.5505 26.75 72.4705 26.73C70.3905 26.71 68.6905 28.39 68.6805 30.46C68.6805 32.54 70.3405 34.23 72.4205 34.24V34.23ZM88.4905 18.68C86.4305 18.68 84.7405 20.37 84.7405 22.43C84.7405 24.5 86.4305 26.2 88.5005 26.2C90.5705 26.2 92.2605 24.51 92.2605 22.43C92.2605 20.36 90.5705 18.67 88.4905 18.67V18.68Z" fill="#7CB6C9"/>
</g>
<defs>
<clipPath id="clip0_6277_317">
<rect width="93.95" height="61" fill="white"/>
</clipPath>
</defs>
</svg>
