<svg width="96" height="61" viewBox="0 0 96 61" fill="none" xmlns="http://www.w3.org/2000/svg">
<g clip-path="url(#clip0_6277_338)">
<path d="M57.5 30.5C57.5 27.13 58.18 23.92 59.41 21H0V56C0 58.76 2.24 61 5 61H75C77.76 61 80 58.76 80 56V54.91C67.41 53.89 57.5 43.35 57.5 30.5Z" fill="#7CB6C9"/>
<path d="M80 6.09V5C80 2.24 77.76 0 75 0H5C2.24 0 0 2.24 0 5V15H63.03C67.13 9.99 73.17 6.64 80 6.09Z" fill="#7CB6C9"/>
<path d="M6.5 10C7.88071 10 9 8.88071 9 7.5C9 6.11929 7.88071 5 6.5 5C5.11929 5 4 6.11929 4 7.5C4 8.88071 5.11929 10 6.5 10Z" fill="#ECFEFF"/>
<path d="M13.5 10C14.8807 10 16 8.88071 16 7.5C16 6.11929 14.8807 5 13.5 5C12.1193 5 11 6.11929 11 7.5C11 8.88071 12.1193 10 13.5 10Z" fill="#ECFEFF"/>
<path d="M20.5 10C21.8807 10 23 8.88071 23 7.5C23 6.11929 21.8807 5 20.5 5C19.1193 5 18 6.11929 18 7.5C18 8.88071 19.1193 10 20.5 10Z" fill="#ECFEFF"/>
<path d="M77.5502 39.85C75.3702 39.85 73.1902 39.85 71.0202 39.85C67.9302 39.85 65.2802 37.48 64.9902 34.47C64.6802 31.28 66.7102 28.52 69.8102 27.9C70.2702 27.81 70.7302 27.78 71.1602 27.77C71.6102 26.29 72.3902 24.99 73.4802 23.88C75.6102 21.72 78.5602 20.75 81.5602 21.21C84.4602 21.65 86.9002 23.35 88.3202 25.9C90.2502 25.7 92.1702 26.31 93.6302 27.59C95.1802 28.95 96.0502 30.92 96.0102 32.98C95.9502 36.22 93.6402 39.06 90.5302 39.72C90.1302 39.81 89.7002 39.85 89.2402 39.85C85.3502 39.85 81.4502 39.85 77.5602 39.85H77.5502ZM80.1102 23.1C78.1602 23.1 76.3002 23.87 74.9002 25.29C73.9002 26.3 73.2302 27.53 72.9202 28.95C72.8202 29.38 72.4602 29.7 72.0202 29.73C71.7902 29.75 71.5702 29.76 71.3502 29.76C70.9402 29.78 70.5502 29.79 70.2102 29.86C68.1402 30.28 66.7802 32.13 66.9902 34.28C67.1802 36.28 68.9602 37.85 71.0302 37.85C77.1002 37.85 83.1702 37.85 89.2402 37.85C89.5502 37.85 89.8502 37.82 90.1102 37.76C92.3202 37.29 93.9602 35.26 94.0102 32.93C94.0402 31.46 93.4202 30.05 92.3102 29.08C91.2102 28.11 89.7402 27.68 88.2902 27.9C87.7902 27.97 87.1102 27.9 86.6902 27.07C85.6002 24.95 83.6202 23.53 81.2602 23.17C80.8802 23.11 80.4902 23.08 80.1202 23.08L80.1102 23.1Z" fill="#7CB6C9"/>
</g>
<defs>
<clipPath id="clip0_6277_338">
<rect width="96" height="61" fill="white"/>
</clipPath>
</defs>
</svg>
